<svg xmlns="http://www.w3.org/2000/svg" width="48.001" height="48" viewBox="0 0 48.001 48">
  <g>
    <path d="M47.9,46.9c-8.879-15.01-4.8-36.125-4.761-36.336a.862.862,0,0,0,0-.088.653.653,0,0,0,0-.133.673.673,0,0,0-.062-.217c-.012-.025-.008-.055-.022-.08L37.23.352A.727.727,0,0,0,36.606,0H11.4a.724.724,0,0,0-.623.352l-5.819,9.7c-.015.025-.011.055-.022.08a.719.719,0,0,0-.062.217.654.654,0,0,0,0,.133.647.647,0,0,0,0,.088C4.906,10.778,8.982,31.893.1,46.9A.727.727,0,0,0,.728,48H47.273a.727.727,0,0,0,.626-1.1ZM36.8,2.46,41.14,9.7H36.964C35.806,7.571,36.333,4.333,36.8,2.46ZM35.556,1.454c-.487,1.727-1.281,5.426-.182,8.242H12.561c1.1-2.814.311-6.514-.177-8.242Zm-24.4,1.08c.461,1.883.959,5.064-.185,7.162H6.861ZM6.447,11.151H41.555c-.589,3.516-2.358,16.744,1.761,29.1H4.685C8.805,27.9,7.036,14.667,6.447,11.151ZM1.976,46.546A38.175,38.175,0,0,0,4.169,41.7H43.831a38.175,38.175,0,0,0,2.193,4.842Z" fill="#1a171b"/>
    <path d="M33.618,18.868a.728.728,0,0,0-.728.729v1.939a8.89,8.89,0,0,1-17.779,0V19.6a.728.728,0,1,0-1.455,0v1.939a10.344,10.344,0,1,0,20.687,0V19.6A.726.726,0,0,0,33.618,18.868Z" fill="#1a171b"/>
    <path d="M16.082,19.112a.728.728,0,0,0,1.456,0,3.152,3.152,0,1,0-6.3,0,.728.728,0,0,0,1.456,0,1.7,1.7,0,1,1,3.391,0Z" fill="#1a171b"/>
    <path d="M33.618,15.96a3.156,3.156,0,0,0-3.152,3.152.728.728,0,0,0,1.456,0,1.7,1.7,0,1,1,3.393,0,.728.728,0,0,0,1.456,0A3.158,3.158,0,0,0,33.618,15.96Z" fill="#1a171b"/>
  </g>
</svg>
